<svg id="圖層_3" data-name="圖層 3" xmlns="http://www.w3.org/2000/svg" viewBox="0 0 595.28 841.89"><defs><style>.cls-1{fill:#4a8437;}.cls-2{fill:#2f2111;}.cls-3{fill:#050101;stroke:#050101;stroke-miterlimit:10;}.cls-4{fill:#f4f4f4;}</style></defs><title>hulk</title><rect class="cls-1" x="113.21" y="265.65" width="348.3" height="348.3" rx="76.93"/><path class="cls-2" d="M193.17,266.08s-3.14,25.24-12,36.51c0,0,21.39-8.85,26.67-21.82,0,0,8.7,11.41,4.71,40.21,0,0,25-15.83,30.8-32.51,0,0,7.28,11.69,4,31.66,0,0,26.52-11.7,32.8-24.53,0,0,9.28,21.33-5.22,49.65,0,0,33.75-12.46,48.25-58.67,0,0,11.33,7.93,7.48,36.47,0,0,20.61-15.63,24-39.42,0,0,11.78,5.89,10.87,27.87,0,0,18.13-20.62,16.54-45.42Z"/><path class="cls-3" d="M278.26,420.94s-16.19,7.24-34.93-10.08c0,0-77.82-23.86-111.9-50,0,0,27.26,80.38,70.43,82.08,0,0,27.83,3.69,48.85-19C250.71,423.92,269.74,431.32,278.26,420.94Z"/><path class="cls-4" d="M250.2,422.72s-7.28-3.28-9.56-6.71c0,0-76-22.51-103-50.73,0,0,21.24,58.17,55,67.51C192.57,432.79,215,445.34,250.2,422.72Z"/><path class="cls-3" d="M295.15,420.94s16.19,7.24,34.93-10.08c0,0,77.82-23.86,111.9-50,0,0-27.27,80.38-70.44,82.08,0,0-27.83,3.69-48.84-19C322.7,423.92,303.67,431.32,295.15,420.94Z"/><path class="cls-4" d="M323.2,422.72s7.28-3.28,9.57-6.71c0,0,76-22.51,103-50.73,0,0-21.23,58.17-55,67.51C380.84,432.79,358.45,445.34,323.2,422.72Z"/></svg>